<svg width="117" height="19" viewBox="0 0 117 19" fill="none" xmlns="http://www.w3.org/2000/svg">
<path d="M2.576 18.216C1.968 18.216 1.504 18.048 1.184 17.712C0.864 17.376 0.704 16.904 0.704 16.296V2.976C0.704 2.352 0.864 1.88 1.184 1.56C1.52 1.24 1.992 1.08 2.6 1.08H8.432C10.32 1.08 11.776 1.56 12.8 2.52C13.824 3.464 14.336 4.784 14.336 6.48C14.336 8.176 13.824 9.504 12.8 10.464C11.776 11.424 10.32 11.904 8.432 11.904H4.424V16.296C4.424 16.904 4.264 17.376 3.944 17.712C3.64 18.048 3.184 18.216 2.576 18.216ZM4.424 9.024H7.808C8.768 9.024 9.496 8.808 9.992 8.376C10.504 7.944 10.76 7.312 10.76 6.48C10.76 5.648 10.504 5.024 9.992 4.608C9.496 4.192 8.768 3.984 7.808 3.984H4.424V9.024ZM18.5135 18.216C17.9055 18.216 17.4415 18.048 17.1215 17.712C16.8015 17.376 16.6415 16.904 16.6415 16.296V2.784C16.6415 2.176 16.8015 1.704 17.1215 1.368C17.4415 1.032 17.9055 0.863999 18.5135 0.863999C19.1055 0.863999 19.5615 1.032 19.8815 1.368C20.2015 1.704 20.3615 2.176 20.3615 2.784V16.296C20.3615 16.904 20.2015 17.376 19.8815 17.712C19.5775 18.048 19.1215 18.216 18.5135 18.216ZM24.8705 18C24.3905 18 23.9985 17.904 23.6945 17.712C23.3905 17.504 23.1825 17.232 23.0705 16.896C22.9745 16.544 22.9745 16.16 23.0705 15.744C23.1825 15.328 23.4065 14.912 23.7425 14.496L32.4785 3.048V4.176H24.5825C24.0545 4.176 23.6465 4.04 23.3585 3.768C23.0865 3.496 22.9505 3.112 22.9505 2.616C22.9505 2.12 23.0865 1.744 23.3585 1.488C23.6465 1.216 24.0545 1.08 24.5825 1.08H34.2305C34.7265 1.08 35.1185 1.184 35.4065 1.392C35.7105 1.584 35.9185 1.848 36.0305 2.184C36.1425 2.52 36.1425 2.904 36.0305 3.336C35.9185 3.752 35.6945 4.168 35.3585 4.584L26.6225 16.008V14.904H34.9025C35.4305 14.904 35.8305 15.04 36.1025 15.312C36.3905 15.568 36.5345 15.944 36.5345 16.44C36.5345 16.952 36.3905 17.344 36.1025 17.616C35.8305 17.872 35.4305 18 34.9025 18H24.8705ZM39.6361 18C39.1561 18 38.7641 17.904 38.4601 17.712C38.1561 17.504 37.9481 17.232 37.8361 16.896C37.7401 16.544 37.7401 16.16 37.8361 15.744C37.9481 15.328 38.1721 14.912 38.5081 14.496L47.2441 3.048V4.176H39.3481C38.8201 4.176 38.4121 4.04 38.1241 3.768C37.8521 3.496 37.7161 3.112 37.7161 2.616C37.7161 2.12 37.8521 1.744 38.1241 1.488C38.4121 1.216 38.8201 1.08 39.3481 1.08H48.9961C49.4921 1.08 49.8841 1.184 50.1721 1.392C50.4761 1.584 50.6841 1.848 50.7961 2.184C50.9081 2.52 50.9081 2.904 50.7961 3.336C50.6841 3.752 50.4601 4.168 50.1241 4.584L41.3881 16.008V14.904H49.6681C50.1961 14.904 50.5961 15.04 50.8681 15.312C51.1561 15.568 51.3001 15.944 51.3001 16.44C51.3001 16.952 51.1561 17.344 50.8681 17.616C50.5961 17.872 50.1961 18 49.6681 18H39.6361ZM53.5434 18.216C53.0954 18.216 52.7274 18.112 52.4394 17.904C52.1674 17.696 51.9914 17.416 51.9114 17.064C51.8474 16.712 51.9194 16.32 52.1274 15.888L58.2714 2.424C58.5274 1.88 58.8314 1.488 59.1834 1.248C59.5354 0.991999 59.9434 0.863999 60.4074 0.863999C60.8714 0.863999 61.2794 0.991999 61.6314 1.248C61.9834 1.488 62.2794 1.88 62.5194 2.424L68.7114 15.888C68.9194 16.32 68.9914 16.72 68.9274 17.088C68.8794 17.44 68.7194 17.72 68.4474 17.928C68.1754 18.12 67.8234 18.216 67.3914 18.216C66.8474 18.216 66.4234 18.088 66.1194 17.832C65.8314 17.576 65.5754 17.176 65.3514 16.632L63.9114 13.296L65.3994 14.328H55.3914L56.8794 13.296L55.4634 16.632C55.2234 17.192 54.9674 17.6 54.6954 17.856C54.4394 18.096 54.0554 18.216 53.5434 18.216ZM60.3594 5.04L57.2874 12.36L56.6394 11.424H64.1514L63.5034 12.36L60.4074 5.04H60.3594ZM73.0777 18C72.4537 18 71.9737 17.832 71.6377 17.496C71.3017 17.16 71.1337 16.68 71.1337 16.056V3.024C71.1337 2.4 71.3017 1.92 71.6377 1.584C71.9737 1.248 72.4537 1.08 73.0777 1.08H78.8857C80.0857 1.08 81.1097 1.256 81.9577 1.608C82.8057 1.96 83.4457 2.464 83.8777 3.12C84.3257 3.776 84.5497 4.56 84.5497 5.472C84.5497 6.48 84.2617 7.336 83.6857 8.04C83.1097 8.744 82.3177 9.216 81.3097 9.456V9.072C82.4777 9.28 83.3817 9.744 84.0217 10.464C84.6777 11.168 85.0057 12.088 85.0057 13.224C85.0057 14.728 84.4857 15.904 83.4457 16.752C82.4057 17.584 80.9737 18 79.1497 18H73.0777ZM74.6857 15.24H78.6457C79.6057 15.24 80.3097 15.056 80.7577 14.688C81.2057 14.304 81.4297 13.744 81.4297 13.008C81.4297 12.272 81.2057 11.72 80.7577 11.352C80.3097 10.984 79.6057 10.8 78.6457 10.8H74.6857V15.24ZM74.6857 8.04H78.2377C79.1657 8.04 79.8537 7.864 80.3017 7.512C80.7497 7.16 80.9737 6.632 80.9737 5.928C80.9737 5.24 80.7497 4.72 80.3017 4.368C79.8537 4.016 79.1657 3.84 78.2377 3.84H74.6857V8.04ZM89.7652 18C89.1412 18 88.6612 17.832 88.3252 17.496C87.9892 17.16 87.8212 16.68 87.8212 16.056V3.024C87.8212 2.4 87.9892 1.92 88.3252 1.584C88.6612 1.248 89.1412 1.08 89.7652 1.08H98.1412C98.6212 1.08 98.9812 1.208 99.2212 1.464C99.4772 1.704 99.6052 2.056 99.6052 2.52C99.6052 3 99.4772 3.368 99.2212 3.624C98.9812 3.864 98.6212 3.984 98.1412 3.984H91.3732V7.944H97.5892C98.0852 7.944 98.4532 8.072 98.6932 8.328C98.9492 8.568 99.0772 8.928 99.0772 9.408C99.0772 9.888 98.9492 10.256 98.6932 10.512C98.4532 10.752 98.0852 10.872 97.5892 10.872H91.3732V15.096H98.1412C98.6212 15.096 98.9812 15.224 99.2212 15.48C99.4772 15.72 99.6052 16.072 99.6052 16.536C99.6052 17.016 99.4772 17.384 99.2212 17.64C98.9812 17.88 98.6212 18 98.1412 18H89.7652ZM104.224 18.216C103.616 18.216 103.152 18.048 102.832 17.712C102.512 17.376 102.352 16.904 102.352 16.296V2.76C102.352 2.152 102.512 1.688 102.832 1.368C103.152 1.032 103.616 0.863999 104.224 0.863999C104.816 0.863999 105.272 1.032 105.592 1.368C105.912 1.688 106.072 2.152 106.072 2.76V8.448H106.12L112.504 1.776C112.776 1.488 113.056 1.272 113.344 1.128C113.648 0.967999 113.992 0.887999 114.376 0.887999C114.936 0.887999 115.336 1.032 115.576 1.32C115.832 1.608 115.944 1.944 115.912 2.328C115.88 2.712 115.704 3.072 115.384 3.408L108.976 9.96L109 8.352L115.72 15.528C116.088 15.928 116.272 16.336 116.272 16.752C116.288 17.168 116.152 17.52 115.864 17.808C115.592 18.08 115.184 18.216 114.64 18.216C114.176 18.216 113.8 18.12 113.512 17.928C113.24 17.736 112.936 17.456 112.6 17.088L106.12 10.272H106.072V16.296C106.072 16.904 105.912 17.376 105.592 17.712C105.288 18.048 104.832 18.216 104.224 18.216Z" fill="#181818"/>
</svg>
